<svg xmlns="http://www.w3.org/2000/svg" width="33" height="47.143" viewBox="0 0 33 47.143">
  <path id="ic_lightbulb_outline_24px" d="M14.429,46.786a2.364,2.364,0,0,0,2.357,2.357h9.429a2.364,2.364,0,0,0,2.357-2.357V44.429H14.429ZM21.5,2a16.493,16.493,0,0,0-9.429,30.03v5.327a2.364,2.364,0,0,0,2.357,2.357H28.571a2.364,2.364,0,0,0,2.357-2.357V32.03A16.493,16.493,0,0,0,21.5,2Zm6.718,26.164-2,1.414V35H16.786V29.579l-2-1.414a11.786,11.786,0,1,1,13.436,0Z" transform="translate(-5 -2)" fill="rgba(255,255,255,0.8)"/>
</svg>
