<svg xmlns="http://www.w3.org/2000/svg" width="887.304" height="723.364" viewBox="0 0 887.304 723.364">
  <g id="Hero" transform="translate(0 0.791)">
    <ellipse id="Ellipse_23" data-name="Ellipse 23" cx="160.952" cy="36.241" rx="160.952" ry="36.241" transform="translate(549.976 650.092)" fill="#4786ff"/>
    <ellipse id="Ellipse_24" data-name="Ellipse 24" cx="160.952" cy="36.241" rx="160.952" ry="36.241" transform="translate(564.899 639.432)" fill="none" stroke="#3f3d56" stroke-miterlimit="10" stroke-width="1"/>
    <circle id="Ellipse_25" data-name="Ellipse 25" cx="31.977" cy="31.977" r="31.977" transform="translate(433.259 292.479)" fill="#4786ff"/>
    <circle id="Ellipse_26" data-name="Ellipse 26" cx="31.977" cy="31.977" r="31.977" transform="translate(562.234 292.479)" fill="#4786ff"/>
    <circle id="Ellipse_27" data-name="Ellipse 27" cx="31.977" cy="31.977" r="31.977" transform="translate(691.209 292.479)" fill="#6c63ff"/>
    <circle id="Ellipse_28" data-name="Ellipse 28" cx="3.198" cy="3.198" r="3.198" transform="translate(10.093 18.54)" fill="#f86b75"/>
    <circle id="Ellipse_29" data-name="Ellipse 29" cx="3.198" cy="3.198" r="3.198" transform="translate(19.686 18.54)" fill="#fad375"/>
    <circle id="Ellipse_30" data-name="Ellipse 30" cx="3.198" cy="3.198" r="3.198" transform="translate(29.28 18.54)" fill="#8bcc55"/>
    <rect id="Rectangle_24" data-name="Rectangle 24" width="219.577" height="68.218" transform="translate(71.383 71.302)" fill="#4786ff"/>
    <rect id="Rectangle_25" data-name="Rectangle 25" width="387.991" height="230.236" transform="translate(0.5 11.079)" fill="none" stroke="#3f3d56" stroke-miterlimit="10" stroke-width="1"/>
    <line id="Line_7" data-name="Line 7" x2="387.991" transform="translate(0.5 28.515)" fill="none" stroke="#3f3d56" stroke-miterlimit="10" stroke-width="1"/>
    <circle id="Ellipse_31" data-name="Ellipse 31" cx="3.198" cy="3.198" r="3.198" transform="translate(11.159 16.408)" fill="none" stroke="#3f3d56" stroke-miterlimit="10" stroke-width="1"/>
    <circle id="Ellipse_32" data-name="Ellipse 32" cx="3.198" cy="3.198" r="3.198" transform="translate(20.752 16.408)" fill="none" stroke="#3f3d56" stroke-miterlimit="10" stroke-width="1"/>
    <circle id="Ellipse_33" data-name="Ellipse 33" cx="3.198" cy="3.198" r="3.198" transform="translate(30.345 16.408)" fill="none" stroke="#3f3d56" stroke-miterlimit="10" stroke-width="1"/>
    <rect id="Rectangle_26" data-name="Rectangle 26" width="219.577" height="68.218" transform="translate(84.707 57.979)" fill="none" stroke="#3f3d56" stroke-miterlimit="10" stroke-width="1"/>
    <rect id="Rectangle_27" data-name="Rectangle 27" width="294.191" height="8.821" transform="translate(43.669 169.367)" fill="#f2f2f2"/>
    <rect id="Rectangle_28" data-name="Rectangle 28" width="294.191" height="8.821" transform="translate(43.669 190.538)" fill="#f2f2f2"/>
    <rect id="Rectangle_29" data-name="Rectangle 29" width="294.191" height="8.821" transform="translate(43.669 211.709)" fill="#f2f2f2"/>
    <rect id="Rectangle_30" data-name="Rectangle 30" width="294.191" height="8.821" transform="translate(46.867 165.103)" fill="none" stroke="#3f3d56" stroke-miterlimit="10" stroke-width="1"/>
    <rect id="Rectangle_31" data-name="Rectangle 31" width="294.191" height="8.821" transform="translate(46.867 186.274)" fill="none" stroke="#3f3d56" stroke-miterlimit="10" stroke-width="1"/>
    <rect id="Rectangle_32" data-name="Rectangle 32" width="294.191" height="8.821" transform="translate(46.867 207.445)" fill="none" stroke="#3f3d56" stroke-miterlimit="10" stroke-width="1"/>
    <circle id="Ellipse_34" data-name="Ellipse 34" cx="3.198" cy="3.198" r="3.198" transform="translate(99.63 417.19)" fill="#f86b75"/>
    <circle id="Ellipse_35" data-name="Ellipse 35" cx="3.198" cy="3.198" r="3.198" transform="translate(109.223 417.19)" fill="#fad375"/>
    <circle id="Ellipse_36" data-name="Ellipse 36" cx="3.198" cy="3.198" r="3.198" transform="translate(118.816 417.19)" fill="#8bcc55"/>
    <rect id="Rectangle_33" data-name="Rectangle 33" width="219.577" height="68.218" transform="translate(160.919 469.953)" fill="#4786ff"/>
    <path id="Path_155" data-name="Path 155" d="M472.491,431.245V614.581H84.5V384.345H400.009" transform="translate(5.536 25.384)" fill="none" stroke="#3f3d56" stroke-miterlimit="10" stroke-width="1"/>
    <line id="Line_8" data-name="Line 8" x2="316.042" transform="translate(90.036 427.165)" fill="none" stroke="#3f3d56" stroke-miterlimit="10" stroke-width="1"/>
    <circle id="Ellipse_37" data-name="Ellipse 37" cx="3.198" cy="3.198" r="3.198" transform="translate(100.695 415.059)" fill="none" stroke="#3f3d56" stroke-miterlimit="10" stroke-width="1"/>
    <circle id="Ellipse_38" data-name="Ellipse 38" cx="3.198" cy="3.198" r="3.198" transform="translate(110.289 415.059)" fill="none" stroke="#3f3d56" stroke-miterlimit="10" stroke-width="1"/>
    <circle id="Ellipse_39" data-name="Ellipse 39" cx="3.198" cy="3.198" r="3.198" transform="translate(119.882 415.059)" fill="none" stroke="#3f3d56" stroke-miterlimit="10" stroke-width="1"/>
    <rect id="Rectangle_34" data-name="Rectangle 34" width="219.577" height="68.218" transform="translate(174.243 456.629)" fill="none" stroke="#3f3d56" stroke-miterlimit="10" stroke-width="1"/>
    <circle id="Ellipse_40" data-name="Ellipse 40" cx="3.198" cy="3.198" r="3.198" transform="translate(415.139 232.788)" fill="#f86b75"/>
    <circle id="Ellipse_41" data-name="Ellipse 41" cx="3.198" cy="3.198" r="3.198" transform="translate(424.732 232.788)" fill="#fad375"/>
    <circle id="Ellipse_42" data-name="Ellipse 42" cx="3.198" cy="3.198" r="3.198" transform="translate(434.325 232.788)" fill="#8bcc55"/>
    <rect id="Rectangle_35" data-name="Rectangle 35" width="387.991" height="230.236" transform="translate(405.546 225.327)" fill="none" stroke="#3f3d56" stroke-miterlimit="10" stroke-width="1"/>
    <line id="Line_9" data-name="Line 9" x2="387.991" transform="translate(405.546 242.763)" fill="none" stroke="#3f3d56" stroke-miterlimit="10" stroke-width="1"/>
    <circle id="Ellipse_43" data-name="Ellipse 43" cx="3.198" cy="3.198" r="3.198" transform="translate(416.205 230.656)" fill="none" stroke="#3f3d56" stroke-miterlimit="10" stroke-width="1"/>
    <circle id="Ellipse_44" data-name="Ellipse 44" cx="3.198" cy="3.198" r="3.198" transform="translate(425.798 230.656)" fill="none" stroke="#3f3d56" stroke-miterlimit="10" stroke-width="1"/>
    <circle id="Ellipse_45" data-name="Ellipse 45" cx="3.198" cy="3.198" r="3.198" transform="translate(435.391 230.656)" fill="none" stroke="#3f3d56" stroke-miterlimit="10" stroke-width="1"/>
    <circle id="Ellipse_46" data-name="Ellipse 46" cx="31.977" cy="31.977" r="31.977" transform="translate(438.589 287.149)" fill="none" stroke="#3f3d56" stroke-miterlimit="10" stroke-width="1"/>
    <circle id="Ellipse_47" data-name="Ellipse 47" cx="31.977" cy="31.977" r="31.977" transform="translate(567.564 287.149)" fill="none" stroke="#3f3d56" stroke-miterlimit="10" stroke-width="1"/>
    <circle id="Ellipse_48" data-name="Ellipse 48" cx="31.977" cy="31.977" r="31.977" transform="translate(696.539 287.149)" fill="none" stroke="#3f3d56" stroke-miterlimit="10" stroke-width="1"/>
    <rect id="Rectangle_36" data-name="Rectangle 36" width="87.405" height="8.527" transform="translate(422.067 378.285)" fill="#f2f2f2"/>
    <rect id="Rectangle_37" data-name="Rectangle 37" width="87.405" height="8.527" transform="translate(552.108 378.285)" fill="#f2f2f2"/>
    <rect id="Rectangle_38" data-name="Rectangle 38" width="87.405" height="8.527" transform="translate(682.149 378.285)" fill="#f2f2f2"/>
    <rect id="Rectangle_39" data-name="Rectangle 39" width="87.405" height="8.527" transform="translate(426.331 375.087)" fill="none" stroke="#3f3d56" stroke-miterlimit="10" stroke-width="1"/>
    <rect id="Rectangle_40" data-name="Rectangle 40" width="87.405" height="8.527" transform="translate(556.372 375.087)" fill="none" stroke="#3f3d56" stroke-miterlimit="10" stroke-width="1"/>
    <rect id="Rectangle_41" data-name="Rectangle 41" width="87.405" height="8.527" transform="translate(686.413 375.087)" fill="none" stroke="#3f3d56" stroke-miterlimit="10" stroke-width="1"/>
    <rect id="Rectangle_42" data-name="Rectangle 42" width="67.152" height="57.559" transform="translate(104.426 564.819)" fill="#f2f2f2"/>
    <rect id="Rectangle_43" data-name="Rectangle 43" width="67.152" height="57.559" transform="translate(228.605 565.352)" fill="#f2f2f2"/>
    <rect id="Rectangle_44" data-name="Rectangle 44" width="67.152" height="57.559" transform="translate(352.783 565.885)" fill="#f2f2f2"/>
    <rect id="Rectangle_45" data-name="Rectangle 45" width="67.152" height="57.559" transform="translate(114.019 554.16)" fill="none" stroke="#3f3d56" stroke-miterlimit="10" stroke-width="1"/>
    <rect id="Rectangle_46" data-name="Rectangle 46" width="67.152" height="57.559" transform="translate(238.198 554.693)" fill="none" stroke="#3f3d56" stroke-miterlimit="10" stroke-width="1"/>
    <rect id="Rectangle_47" data-name="Rectangle 47" width="67.152" height="57.559" transform="translate(362.376 555.226)" fill="none" stroke="#3f3d56" stroke-miterlimit="10" stroke-width="1"/>
    <path id="Path_156" data-name="Path 156" d="M602.635,204.492l-29.909,16.572,31.9-11.252Z" transform="translate(37.715 13.53)" fill="#79758c"/>
    <ellipse id="Ellipse_49" data-name="Ellipse 49" cx="8.345" cy="16.812" rx="8.345" ry="16.812" transform="translate(635.508 204.928) rotate(-17.994)" fill="#3f3d56"/>
    <ellipse id="Ellipse_50" data-name="Ellipse 50" cx="6.296" cy="11.871" rx="6.296" ry="11.871" transform="translate(664.997 196.175) rotate(-17.994)" fill="#3f3d56"/>
    <path id="Path_157" data-name="Path 157" d="M610.365,196.124l19.839-7.163,4.217,11.68-19.2,12.97Z" transform="translate(40.196 12.506)" fill="#3f3d56"/>
    <path id="Path_158" data-name="Path 158" d="M793.126,349.534l5.33-11.725s12.791-34.109,1.066-27.714-15.989,23.45-15.989,23.45l-3.2,10.659Z" transform="translate(-144.462 -97.961)" fill="#a0616a"/>
    <path id="Path_159" data-name="Path 159" d="M931.115,513.315s-18.12,35.175-23.45,36.241-5.33-31.977-5.33-31.977,10.659-9.593,14.923-8.527S931.115,513.315,931.115,513.315Z" transform="translate(-136.421 -84.801)" fill="#a0616a"/>
    <path id="Path_160" data-name="Path 160" d="M906,721.046s9.593,5.33,5.33,17.055-6.4,8.527-8.527,18.12-21.318,8.527-22.384,4.264-3.2-21.318,2.132-27.714S906,721.046,906,721.046Z" transform="translate(-137.954 -70.823)" fill="#55536e"/>
    <path id="Path_161" data-name="Path 161" d="M815.732,721.046s-9.593,5.33-5.33,17.055,6.4,8.527,8.527,18.12,21.318,8.527,22.384,4.264,3.2-21.318-2.132-27.714S815.732,721.046,815.732,721.046Z" transform="translate(-142.553 -70.823)" fill="#55536e"/>
    <path id="Path_162" data-name="Path 162" d="M905.275,522.466s8.527,5.33,10.659,38.373-1.066,70.35-2.132,78.877,1.066,21.318,3.2,27.714-5.33,55.427-5.33,55.427a24.977,24.977,0,0,1,0,21.318c-5.33,11.725-21.318,23.45-25.582,11.725a28.918,28.918,0,0,0-3.2-11.725c-3.2-6.4,2.132-31.977,2.132-31.977s-4.264-40.5-3.2-51.164-12.791-73.548-14.923-84.207-1.066-19.186-2.132-15.989-20.252,91.668-20.252,91.668,2.132,56.493,1.066,63.955,4.264,22.384,1.066,27.714-9.593,24.516-21.318,12.791-9.593-15.989-10.659-21.318,0-11.725,0-20.252-8.527-56.493-4.264-63.955,2.132-17.055,1.066-34.109S809.343,518.2,820,503.28,905.275,522.466,905.275,522.466Z" transform="translate(-142.559 -85.425)" fill="#3f3d56"/>
    <circle id="Ellipse_51" data-name="Ellipse 51" cx="25.582" cy="25.582" r="25.582" transform="translate(711.019 186.02)" fill="#a0616a"/>
    <path id="Path_163" data-name="Path 163" d="M892.906,319.535s-1.066,38.373,4.264,44.768-45.834-5.33-45.834-5.33,11.725-24.516,4.264-40.5S892.906,319.535,892.906,319.535Z" transform="translate(-139.783 -97.807)" fill="#a0616a"/>
    <path id="Path_164" data-name="Path 164" d="M905.267,357.857s-2.132-8.527-14.923-10.659-27.917-4.264-32.612,0-6.827,9.593-10.024,9.593H832.785l-23.45,41.57s11.725,13.857,8.527,39.439-8.527,72.482-8.527,72.482a234.5,234.5,0,0,1,22.384,36.241c10.659,21.318,84.207,19.186,79.943-18.12,0,0-5.33-9.593-3.2-18.12s8.527-66.086,8.527-66.086l24.516-65.02S907.4,362.121,905.267,357.857Z" transform="translate(-142.551 -95.625)" fill="#55536e"/>
    <path id="Path_165" data-name="Path 165" d="M927.587,376.046h7.461s4.264,24.516,3.2,39.439-1.066,50.1-1.066,50.1,4.264,8.527,3.2,15.989-3.2,27.714-3.2,27.714-1.066,28.78-21.318,13.857c0,0-6.4-3.2-3.2-17.055s-2.132-28.78-2.132-28.78,3.2-9.593,2.132-15.989-5.33-26.648-5.33-26.648Z" transform="translate(-136.092 -93.562)" fill="#55536e"/>
    <path id="Path_166" data-name="Path 166" d="M840.727,360.461l-5.33-3.2s-7.461-3.2-18.12,0-15.989,2.132-20.252,1.066-1.066-11.725-1.066-11.725-8.527-14.923-17.055-6.4-8.527,25.582-8.527,25.582-5.33,10.659,13.857,17.055,27.714,15.989,27.714,15.989h21.318Z" transform="translate(-145.163 -96.097)" fill="#55536e"/>
    <path id="Path_167" data-name="Path 167" d="M875,342.587a4.942,4.942,0,0,0-3.065-4.4,13.973,13.973,0,0,0-3.643-.719c-3.63-.468-7.364-1.8-9.478-4.572-2.815-3.692-2.046-8.857-4.3-12.865a44.633,44.633,0,0,0-3.44-4.52c-3.938-5.27-4.632-12-4.99-18.4a7.9,7.9,0,0,1,.434-3.844,14.773,14.773,0,0,1,2.432-3,9.969,9.969,0,0,0,2.412-6.652c-.115-4.957,6.977-8.288,12-10s10.471-1.984,15.823-2.057c3.077-.042,6.252-.005,9.08,1.118a20.9,20.9,0,0,1,4.552,2.71c5.927,4.338,11.493,9.671,13.482,16.422a35.51,35.51,0,0,1,1.08,9.431,6.173,6.173,0,0,1-.422,2.9c-.711,1.43-2.388,2.2-3.472,3.417-2.024,2.265-1.664,5.543-1.921,8.474a19.411,19.411,0,0,1-9.533,14.681,12.155,12.155,0,0,0-2.982,2.061,13.086,13.086,0,0,0-1.644,2.87C885.273,339.733,879.9,342.442,875,342.587Z" transform="translate(-140.134 -100.449)" fill="#3f3d56"/>
    <path id="Path_168" data-name="Path 168" d="M193.476,10.671l-14.2,7.865,15.141-5.34Z" transform="translate(11.783 0.755)" fill="#79758c"/>
    <ellipse id="Ellipse_52" data-name="Ellipse 52" cx="3.961" cy="7.98" rx="3.961" ry="7.98" transform="translate(202.96 5.211) rotate(-17.994)" fill="#3f3d56"/>
    <ellipse id="Ellipse_53" data-name="Ellipse 53" cx="2.988" cy="5.635" rx="2.988" ry="5.635" transform="translate(216.959 1.056) rotate(-17.994)" fill="#3f3d56"/>
    <path id="Path_169" data-name="Path 169" d="M197.145,6.7l9.417-3.4,2,5.544L199.449,15Z" transform="translate(12.961 0.27)" fill="#3f3d56"/>
    <path id="Path_170" data-name="Path 170" d="M283.476,382.671l-14.2,7.865,15.141-5.34Z" transform="translate(17.715 25.274)" fill="#79758c"/>
    <ellipse id="Ellipse_54" data-name="Ellipse 54" cx="3.961" cy="7.98" rx="3.961" ry="7.98" transform="translate(298.892 401.73) rotate(-17.994)" fill="#3f3d56"/>
    <ellipse id="Ellipse_55" data-name="Ellipse 55" cx="2.988" cy="5.635" rx="2.988" ry="5.635" transform="translate(312.89 397.575) rotate(-17.994)" fill="#3f3d56"/>
    <path id="Path_171" data-name="Path 171" d="M287.145,378.7l9.417-3.4,2,5.544L289.449,387Z" transform="translate(18.893 24.788)" fill="#3f3d56"/>
  </g>
</svg>
